<svg width="24" height="24" fill="none" xmlns="http://www.w3.org/2000/svg"><mask id="a" maskUnits="userSpaceOnUse" x="0" y="-1" width="24" height="25"><path d="M12 23.902c6.627 0 12-5.372 12-12 0-6.627-5.373-12-12-12s-12 5.373-12 12c0 6.628 5.373 12 12 12z" fill="#fff"/></mask><g mask="url(#a)"><path d="M12 23.902c6.627 0 12-5.372 12-12 0-6.627-5.373-12-12-12s-12 5.373-12 12c0 6.628 5.373 12 12 12z" fill="#BBC1C7"/><path fill-rule="evenodd" clip-rule="evenodd" d="M2.475 14.285c-.024-.229-.548-.23-.646-1.064-.053-.448.157-.7.285-.779 0 0-.318-.723-.318-1.44 0-2.131 1.058-3.9 3.612-3.9 1.379 0 1.806.974 1.806.974 1.232 0 1.806 1.347 1.806 2.927 0 .787-.317 1.44-.317 1.44.127.078.338.33.285.778-.099.834-.434 1.046-.647 1.064-.082.777-.856 1.774-1.127 1.919v1.3c.354 1.146 2.158 1.176 3.586 1.927-.815.7-3.377 2.07-5.392 2.07-2.015 0-4.369-1.265-5.408-2.06 1.431-.761 3.247-.787 3.602-1.937v-1.3c-.27-.144-1.045-1.14-1.127-1.92zm13.199 0c-.024-.229-.547-.23-.646-1.064-.053-.448.157-.7.285-.779 0 0-.318-.723-.318-1.44 0-2.131 1.059-3.9 3.613-3.9 1.378 0 1.806.974 1.806.974 1.231 0 1.806 1.347 1.806 2.927 0 .787-.318 1.44-.318 1.44.127.078.338.33.285.778-.099.834-.433 1.046-.646 1.064-.082.777-.857 1.774-1.127 1.919v1.3c.353 1.146 2.157 1.176 3.585 1.927-.814.7-3.377 2.07-5.391 2.07-2.015 0-4.37-1.265-5.409-2.06 1.431-.761 3.248-.787 3.602-1.937v-1.3c-.27-.144-1.045-1.14-1.127-1.92z" fill="#fff"/><path fill-rule="evenodd" clip-rule="evenodd" d="M7.314 13.075c-.036-.342-.821-.343-.97-1.595-.079-.671.237-1.05.428-1.168 0 0-.476-1.084-.476-2.16 0-3.197 1.587-5.851 5.418-5.851 2.068 0 2.71 1.462 2.71 1.462 1.847 0 2.708 2.02 2.708 4.39 0 1.18-.477 2.159-.477 2.159.192.118.508.497.428 1.168-.148 1.252-.65 1.568-.97 1.595-.122 1.167-1.284 2.662-1.69 2.88v1.95c.53 1.718 3.236 1.763 5.379 2.89-1.222 1.05-5.066 3.106-8.088 3.106-3.022 0-6.554-1.899-8.112-3.092 2.146-1.14 4.87-1.179 5.403-2.905v-1.95c-.407-.216-1.568-1.71-1.69-2.879z" fill="#fff" stroke="#BBC1C7"/><path d="M12 23.452c6.378 0 11.55-5.172 11.55-11.55 0-6.38-5.172-11.55-11.55-11.55C5.62.352.45 5.522.45 11.902c0 6.379 5.17 11.55 11.55 11.55z" stroke="#BBC1C7"/></g></svg>